<svg width="40" height="40" viewBox="0 0 40 40" fill="none" xmlns="http://www.w3.org/2000/svg">
<path d="M31.6667 14.5167L22.7783 7.60337C21.9983 6.99655 21.0383 6.66708 20.05 6.66708C19.0617 6.66708 18.1017 6.99655 17.3217 7.60337L8.43167 14.5167C7.89741 14.9322 7.46516 15.4642 7.16793 16.0723C6.8707 16.6803 6.71636 17.3482 6.71668 18.025V30.025C6.71668 30.9091 7.06786 31.7569 7.69299 32.3821C8.31811 33.0072 9.16595 33.3584 10.05 33.3584H30.05C30.9341 33.3584 31.7819 33.0072 32.407 32.3821C33.0322 31.7569 33.3833 30.9091 33.3833 30.025V18.025C33.3833 16.6534 32.75 15.3584 31.6667 14.5167Z" stroke="white" stroke-width="2" stroke-linecap="round" stroke-linejoin="round"/>
<path d="M26.6666 25C22.9833 27.2217 17.0133 27.2217 13.3333 25" stroke="white" stroke-width="2" stroke-linecap="round" stroke-linejoin="round"/>
</svg>
